<svg width="17" height="20" viewBox="0 0 17 20" fill="none" xmlns="http://www.w3.org/2000/svg">
<path d="M10 1V6.4H15.4M4.6 10.9H6.4M4.6 14.5H6.4M10 10.9H11.8M10 14.5H11.8M10.45 1H2.8C2.32261 1 1.86477 1.18964 1.52721 1.52721C1.18964 1.86477 1 2.32261 1 2.8V17.2C1 17.6774 1.18964 18.1352 1.52721 18.4728C1.86477 18.8104 2.32261 19 2.8 19H13.6C14.0774 19 14.5352 18.8104 14.8728 18.4728C15.2104 18.1352 15.4 17.6774 15.4 17.2V5.95L10.45 1Z" stroke="black" stroke-width="2" stroke-linecap="round" stroke-linejoin="round"/>
</svg>
